# xmcd
# Track frame offsets:
# 180
# 18532
# 31950
# 55003
# 73985
# 93456
# 114185
# 133512
#
# Disc length: 1970 seconds
# Revision: 0
# Processed by: cddbd v1.4PL0 Copyright (c) Steve Scherf et al.
# Submitted via: VisiTrax 2.9.5.181 - For more info visit www.synapsa.com
#
DISCID=6607b008
DTITLE=Black Saddle - Nowhere To Ride
DYEAR=1900
DGENRE=Country
TTITLE0=Wall To Wall Bang Bang
TTITLE1=Hot To Trot
TTITLE2=How I Feel
TTITLE3=Down Home
TTITLE4=Johnny High Dollar
TTITLE5=Tattoo Song
TTITLE6=Sleepless Night
TTITLE7=Cold Hearted
EXTD=
EXTT0=
EXTT1=
EXTT2=
EXTT3=
EXTT4=
EXTT5=
EXTT6=
EXTT7=
PLAYORDER=
